{"title":"The Canyons 2013 WEB-DL x264 AC3 - BiTo","uid":8774074,"size":1189178535,"categoryP":"video","categoryS":"movies","magnet":"?xt=urn:btih:5a58cc165e1b0b28941d63eb9bb27db103747cc7&amp;dn=The+Canyons+2013+WEB-DL+x264+AC3+-+BiTo&amp;tr=udp%3A%2F%2Ftracker.openbittorrent.com%3A80&amp;tr=udp%3A%2F%2Fopen.demonii.com%3A1337&amp;tr=udp%3A%2F%2Ftracker.coppersurfer.tk%3A6969&amp;tr=udp%3A%2F%2Fexodus.desync.com%3A6969","seeders":1,"leechers":2,"uploader":"srkfan","files":3,"time":1375510161,"description":"[b]SilverTorrent - Clean And Verified Torrents Download[/b]\n\n------------------------------------------------------\n\n &lt;a href=&quot;\nhttp://www.imdb.com/title/tt2292959/&quot; rel=&quot;nofollow&quot; target=&quot;_NEW&quot;&gt;\nhttp://www.imdb.com/title/tt2292959/&lt;/a&gt;\n\nSource: 720p KinGs\nSample: Yes\nAudio: 6Ch @ English\nCodec: x264\nContainer: Mkv\n\nVideo\nID                                       : 1\nFormat                                   : AVC\nFormat/Info                              : Advanced Video Codec\nFormat profile                           : &lt;a class=&quot;__cf_email__&quot; href=&quot;/cdn-cgi/l/email-protection&quot; data-cfemail=&quot;e4a9858d8aa4a8d7cad4&quot;&gt;[email&amp;#160;protected]&lt;/a&gt;&lt;script cf-hash='f9e31' type=&quot;text/javascript&quot;&gt;\n/* &lt;![CDATA[ */!function(){try{var t=&quot;currentScript&quot;in document?document.currentScript:function(){for(var t=document.getElementsByTagName(&quot;script&quot;),e=t.length;e--;)if(t[e].getAttribute(&quot;cf-hash&quot;))return t[e]}();if(t&amp;&amp;t.previousSibling){var e,r,n,i,c=t.previousSibling,a=c.getAttribute(&quot;data-cfemail&quot;);if(a){for(e=&quot;&quot;,r=parseInt(a.substr(0,2),16),n=2;a.length-n;n+=2)i=parseInt(a.substr(n,2),16)^r,e+=String.fromCharCode(i);e=document.createTextNode(e),c.parentNode.replaceChild(e,c)}}}catch(u){}}();/* ]]&gt; */&lt;/script&gt;\nFormat settings, CABAC                   : Yes\nFormat settings, ReFrames                : 4 frames\nCodec ID                                 : V_MPEG4/ISO/AVC\nDuration                                 : 1h 39mn\nBit rate                                 : 1 200 Kbps\nWidth                                    : 720 pixels\nHeight                                   : 304 pixels\nDisplay aspect ratio                     : 2.35:1\nOriginal display aspect ratio            : 2.40:1\nFrame rate mode                          : Constant\nFrame rate                               : 23.976 fps\nColor space                              : YUV\nChroma subsampling                       : 4:2:0\nBit depth                                : 8 bits\nScan type                                : Progressive\nBits/(Pixel*Frame)                       : 0.229\nStream size                              : 823 MiB (74%)\nWriting library                          : x264 core 120\n\n\nAudio\nID                                       : 2\nFormat                                   : AC-3\nFormat/Info                              : Audio Coding 3\nMode extension                           : CM (complete main)\nFormat settings, Endianness              : Big\nCodec ID                                 : A_AC3\nDuration                                 : 1h 39mn\nBit rate mode                            : Constant\nBit rate                                 : 384 Kbps\nChannel(s)                               : 6 channels\nChannel positions                        : Front: L C R, Side: L R, LFE\nSampling rate                            : 48.0 KHz\nBit depth                                : 16 bits\nCompression mode                         : Lossy\nStream size                              : 274 MiB (24%)\nLanguage                                 : English\nDefault                                  : Yes\nForced                                   : No\n &lt;a href=&quot;\nhttp://img407.imageshack.us/img407/8479/r4e.png&quot; rel=&quot;nofollow&quot; target=&quot;_NEW&quot;&gt;\nhttp://img407.imageshack.us/img407/8479/r4e.png&lt;/a&gt; &lt;a href=&quot;\nhttp://img577.imageshack.us/img577/160/2f3p.png&quot; rel=&quot;nofollow&quot; target=&quot;_NEW&quot;&gt;\nhttp://img577.imageshack.us/img577/160/2f3p.png&lt;/a&gt; &lt;a href=&quot;\nhttp://img194.imageshack.us/img194/6131/oqhh.png&quot; rel=&quot;nofollow&quot; target=&quot;_NEW&quot;&gt;\nhttp://img194.imageshack.us/img194/6131/oqhh.png&lt;/a&gt; &lt;a href=&quot;\nhttp://img42.imageshack.us/img42/922/e49z.png&quot; rel=&quot;nofollow&quot; target=&quot;_NEW&quot;&gt;\nhttp://img42.imageshack.us/img42/922/e49z.png&lt;/a&gt; &lt;a href=&quot;\nhttp://img854.imageshack.us/img854/8182/hq7w.png&quot; rel=&quot;nofollow&quot; target=&quot;_NEW&quot;&gt;\nhttp://img854.imageshack.us/img854/8182/hq7w.png&lt;/a&gt;\n","torrent":{"xt":"urn:btih:5a58cc165e1b0b28941d63eb9bb27db103747cc7","amp;dn":"The+Canyons+2013+WEB-DL+x264+AC3+-+BiTo","amp;tr":["udp%3A%2F%2Ftracker.openbittorrent.com%3A80","udp%3A%2F%2Fopen.demonii.com%3A1337","udp%3A%2F%2Ftracker.coppersurfer.tk%3A6969","udp%3A%2F%2Fexodus.desync.com%3A6969"],"infoHash":"5a58cc165e1b0b28941d63eb9bb27db103747cc7","infoHashBuffer":{"type":"Buffer","data":[90,88,204,22,94,27,11,40,148,29,99,235,155,178,125,177,3,116,124,199]},"announce":[],"urlList":[]}}